<?xml version="1.0" encoding="UTF-8"?>
<!DOCTYPE svg PUBLIC "-//W3C//DTD SVG 1.1//EN" "http://www.w3.org/Graphics/SVG/1.1/DTD/svg11.dtd">
<svg xmlns="http://www.w3.org/2000/svg" version="1.1" width="512px" height="512px" style="shape-rendering:geometricPrecision; text-rendering:geometricPrecision; image-rendering:optimizeQuality; fill-rule:evenodd; clip-rule:evenodd" xmlns:xlink="http://www.w3.org/1999/xlink">
<g><path style="opacity:0.984" fill="#f57979" d="M 185.5,-0.5 C 202.5,-0.5 219.5,-0.5 236.5,-0.5C 248.631,12.1318 260.965,24.6318 273.5,37C 275.382,37.1981 277.048,37.6981 278.5,38.5C 254.845,37.8512 231.178,37.8512 207.5,38.5C 195.833,25.8333 184.167,13.1667 172.5,0.5C 177.032,0.818222 181.366,0.484888 185.5,-0.5 Z"/></g>
<g><path style="opacity:0.988" fill="#f6807b" d="M 236.5,-0.5 C 263.167,-0.5 289.833,-0.5 316.5,-0.5C 315.737,0.26791 314.737,0.76791 313.5,1C 326.369,13.7015 339.035,26.5348 351.5,39.5C 327.172,38.8689 302.838,38.5356 278.5,38.5C 277.048,37.6981 275.382,37.1981 273.5,37C 260.965,24.6318 248.631,12.1318 236.5,-0.5 Z"/></g>
<g><path style="opacity:0.985" fill="#f7867d" d="M 316.5,-0.5 C 319.167,-0.5 321.833,-0.5 324.5,-0.5C 343.344,0.525931 362.344,1.52593 381.5,2.5C 395.245,17.7478 409.578,32.5811 424.5,47C 423.944,47.3826 423.611,47.8826 423.5,48.5C 418.375,46.3843 413.041,44.8843 407.5,44C 388.805,42.1212 370.139,40.6212 351.5,39.5C 339.035,26.5348 326.369,13.7015 313.5,1C 314.737,0.76791 315.737,0.26791 316.5,-0.5 Z"/></g>
<g><path style="opacity:0.984" fill="#f57378" d="M 172.5,0.5 C 184.167,13.1667 195.833,25.8333 207.5,38.5C 187.487,38.8462 167.487,39.5128 147.5,40.5C 134.582,29.251 122.249,17.251 110.5,4.5C 130.956,2.24169 151.622,0.908355 172.5,0.5 Z"/></g>
<g><path style="opacity:0.986" fill="#f88b7f" d="M 381.5,2.5 C 421.564,0.673696 455.064,14.3404 482,43.5C 491.885,55.6022 498.885,69.2689 503,84.5C 506.078,100.039 508.245,115.706 509.5,131.5C 493.833,116.167 478.167,100.833 462.5,85.5C 454.386,68.054 441.386,55.7206 423.5,48.5C 423.611,47.8826 423.944,47.3826 424.5,47C 409.578,32.5811 395.245,17.7478 381.5,2.5 Z"/></g>
<g><path style="opacity:0.989" fill="#f46d76" d="M 110.5,4.5 C 122.249,17.251 134.582,29.251 147.5,40.5C 127.556,40.7996 107.889,43.133 88.5,47.5C 78.2191,38.5553 68.2191,29.222 58.5,19.5C 74.3154,9.67766 91.6487,4.67766 110.5,4.5 Z"/></g>
<g><path style="opacity:0.986" fill="#f36674" d="M 58.5,19.5 C 68.2191,29.222 78.2191,38.5553 88.5,47.5C 70.672,54.6593 57.672,66.9926 49.5,84.5C 39.5,75.5 29.5,66.5 19.5,57.5C 29.2365,41.4295 42.2365,28.7629 58.5,19.5 Z"/></g>
<g><path style="opacity:0.985" fill="#f26072" d="M 19.5,57.5 C 29.5,66.5 39.5,75.5 49.5,84.5C 46.9684,90.5988 45.135,96.9322 44,103.5C 42.462,115.843 40.962,128.177 39.5,140.5C 27.8333,129.167 16.1667,117.833 4.5,106.5C 5.68565,88.9468 10.6856,72.6135 19.5,57.5 Z"/></g>
<g><path style="opacity:0.997" fill="#f57378" d="M 274.5,168.5 C 261.868,156.369 249.368,144.035 237,131.5C 236.5,118.171 236.333,104.837 236.5,91.5C 237.936,77.7643 245.602,71.5976 259.5,73C 266.798,74.2973 271.631,78.4639 274,85.5C 274.5,113.165 274.667,140.831 274.5,168.5 Z"/></g>
<g><path style="opacity:0.986" fill="#f7867d" d="M 462.5,85.5 C 478.167,100.833 493.833,116.167 509.5,131.5C 509.982,137.66 510.649,143.66 511.5,149.5C 511.5,165.833 511.5,182.167 511.5,198.5C 498.5,185.833 485.5,173.167 472.5,160.5C 471.645,135.129 468.311,110.129 462.5,85.5 Z"/></g>
<g><path style="opacity:0.989" fill="#f15a71" d="M 4.5,106.5 C 16.1667,117.833 27.8333,129.167 39.5,140.5C 38.8758,161.838 38.2092,183.171 37.5,204.5C 25.2015,192.702 13.0349,180.702 1,168.5C 0.617425,169.056 0.117425,169.389 -0.5,169.5C -0.5,162.833 -0.5,156.167 -0.5,149.5C 0.826502,135.256 2.49317,120.922 4.5,106.5 Z"/></g>
<g><path style="opacity:1" fill="#f46b74" d="M 236.5,91.5 C 236.333,104.837 236.5,118.171 237,131.5C 249.368,144.035 261.868,156.369 274.5,168.5C 274.667,195.169 274.5,221.835 274,248.5C 267.162,261.001 257.329,264.167 244.5,258C 241.238,255.408 238.738,252.241 237,248.5C 235.86,221.367 235.36,194.2 235.5,167C 235.5,141.664 235.833,116.498 236.5,91.5 Z"/></g>
<g><path style="opacity:0.991" fill="#f0546f" d="M 37.5,204.5 C 38.0515,227.502 39.0515,250.502 40.5,273.5C 26.8333,259.5 13.1667,245.5 -0.5,231.5C -0.5,210.833 -0.5,190.167 -0.5,169.5C 0.117425,169.389 0.617425,169.056 1,168.5C 13.0349,180.702 25.2015,192.702 37.5,204.5 Z"/></g>
<g><path style="opacity:0.99" fill="#f6807b" d="M 472.5,160.5 C 485.5,173.167 498.5,185.833 511.5,198.5C 511.5,217.833 511.5,237.167 511.5,256.5C 510.747,262.032 510.08,267.699 509.5,273.5C 497.896,261.395 486.063,249.395 474,237.5C 473.617,238.056 473.117,238.389 472.5,238.5C 473.108,212.639 473.108,186.639 472.5,160.5 Z"/></g>
<g><path style="opacity:0.984" fill="#ef4d6d" d="M -0.5,231.5 C 13.1667,245.5 26.8333,259.5 40.5,273.5C 40.0459,338.046 72.0459,369.713 136.5,368.5C 149.915,382.917 163.915,396.584 178.5,409.5C 149.061,408.719 119.727,406.553 90.5,403C 41.812,390.311 13.312,359.145 5,309.5C 2.89237,291.708 1.05903,274.041 -0.5,256.5C -0.5,248.167 -0.5,239.833 -0.5,231.5 Z"/></g>
<g><path style="opacity:0.981" fill="#f67979" d="M 509.5,273.5 C 508.477,287.877 506.977,302.21 505,316.5C 503.942,321.756 502.442,326.756 500.5,331.5C 490.554,319.886 479.887,308.886 468.5,298.5C 470.585,278.554 471.919,258.554 472.5,238.5C 473.117,238.389 473.617,238.056 474,237.5C 486.063,249.395 497.896,261.395 509.5,273.5 Z"/></g>
<g><path style="opacity:0.977" fill="#f26173" d="M 249.5,288.5 C 270.635,287.796 279.469,297.796 276,318.5C 269.139,331.01 258.972,334.844 245.5,330C 234.688,323.233 231.188,313.733 235,301.5C 238.162,295.164 242.996,290.831 249.5,288.5 Z"/></g>
<g><path style="opacity:0.985" fill="#f57378" d="M 468.5,298.5 C 479.887,308.886 490.554,319.886 500.5,331.5C 495.546,346.755 487.546,360.088 476.5,371.5C 467.78,361.778 458.447,352.778 448.5,344.5C 460.116,331.273 466.782,315.94 468.5,298.5 Z"/></g>
<g><path style="opacity:0.99" fill="#f46b75" d="M 448.5,344.5 C 458.447,352.778 467.78,361.778 476.5,371.5C 460.025,389.24 439.691,399.907 415.5,403.5C 404.369,391.868 393.035,380.368 381.5,369C 382.056,368.617 382.389,368.117 382.5,367.5C 408.016,369.331 430.016,361.664 448.5,344.5 Z"/></g>
<g><path style="opacity:0.989" fill="#f0536f" d="M 136.5,368.5 C 153.173,369.145 169.839,369.979 186.5,371C 196.055,372.527 203.889,377.027 210,384.5C 225.667,409.167 241.333,433.833 257,458.5C 260.941,451.601 265.108,444.934 269.5,438.5C 279.447,447.111 289.114,456.111 298.5,465.5C 290.558,478.616 282.391,491.616 274,504.5C 270.846,507.512 267.346,509.845 263.5,511.5C 258.833,511.5 254.167,511.5 249.5,511.5C 244.994,509.509 241.161,506.509 238,502.5C 218.641,471.096 198.808,440.096 178.5,409.5C 163.915,396.584 149.915,382.917 136.5,368.5 Z"/></g>
<g><path style="opacity:0.988" fill="#f26273" d="M 382.5,367.5 C 382.389,368.117 382.056,368.617 381.5,369C 393.035,380.368 404.369,391.868 415.5,403.5C 389.637,406.552 363.637,408.552 337.5,409.5C 336.167,409.833 334.833,410.167 333.5,410.5C 330.489,415.195 327.489,419.862 324.5,424.5C 314.553,415.889 304.886,406.889 295.5,397.5C 301.051,383.118 311.385,374.285 326.5,371C 345.208,370.02 363.875,368.854 382.5,367.5 Z"/></g>
<g><path style="opacity:0.985" fill="#f15a71" d="M 295.5,397.5 C 304.886,406.889 314.553,415.889 324.5,424.5C 316.069,438.372 307.403,452.039 298.5,465.5C 289.114,456.111 279.447,447.111 269.5,438.5C 277.931,424.628 286.597,410.961 295.5,397.5 Z"/></g>
</svg>
