<svg width="248" height="54" viewBox="0 0 248 54" fill="none" xmlns="http://www.w3.org/2000/svg">
<path d="M48.1431 1.26001C48.1431 1.19105 48.1157 1.12493 48.067 1.07617C48.0182 1.02741 47.9521 1 47.8831 1H37.9631C37.8942 1 37.828 1.02741 37.7793 1.07617C37.7305 1.12493 37.7031 1.19105 37.7031 1.26001V51.1C37.7031 51.169 37.7305 51.2351 37.7793 51.2838C37.828 51.3326 37.8942 51.36 37.9631 51.36H47.8831C47.9521 51.36 48.0182 51.3326 48.067 51.2838C48.1157 51.2351 48.1431 51.169 48.1431 51.1V1.26001Z" stroke="#80B5E5" stroke-width="2"/>
<path d="M64.4534 38.36L87.1734 38.34C87.4824 38.338 87.7789 38.2187 88.0021 38.0068C88.2252 37.7948 88.3581 37.5061 88.3734 37.2C88.4667 35.6267 88.4634 33.9967 88.3634 32.31C87.5534 18.09 72.0534 12.03 60.9434 18.66C47.9634 26.4 50.5834 47.42 65.4134 51.41C73.8401 53.67 80.8201 51.89 86.3534 46.07C86.4323 45.9867 86.4913 45.8867 86.526 45.7774C86.5608 45.6681 86.5703 45.5524 86.554 45.4389C86.5376 45.3254 86.4958 45.217 86.4316 45.1219C86.3674 45.0269 86.2826 44.9476 86.1834 44.89L79.5034 40.98C79.2638 40.839 78.989 40.7689 78.7112 40.7778C78.4333 40.7866 78.1636 40.8741 77.9334 41.03C73.7634 43.8 66.8234 44.03 63.9734 39.21C63.6401 38.6433 63.8001 38.36 64.4534 38.36Z" stroke="#80B5E5" stroke-width="2"/>
<path d="M116.784 19.25C111.524 14.69 103.034 14.94 97.5637 19.49C87.1737 28.15 89.1337 45.79 101.654 51.14C106.474 53.21 112.364 52.72 116.504 49.01C116.582 48.941 116.678 48.8942 116.78 48.8743C116.883 48.8544 116.989 48.8621 117.088 48.8967C117.187 48.9313 117.274 48.9915 117.342 49.0711C117.41 49.1508 117.455 49.247 117.474 49.35L117.724 50.82C117.79 51.1866 118.007 51.37 118.374 51.37L127.544 51.34C127.711 51.34 127.871 51.2736 127.989 51.1555C128.107 51.0373 128.174 50.8771 128.174 50.71V17.32C128.174 17.2557 128.161 17.1919 128.136 17.1325C128.112 17.073 128.076 17.019 128.03 16.9735C127.985 16.928 127.931 16.8919 127.871 16.8673C127.812 16.8427 127.748 16.83 127.684 16.83L118.404 16.84C118.05 16.84 117.81 17.0034 117.684 17.33C117.484 17.8367 117.397 18.3733 117.424 18.94C117.444 19.5333 117.23 19.6367 116.784 19.25Z" stroke="#80B5E5" stroke-width="2"/>
<path d="M144.734 18.6L144.644 17.54C144.626 17.3401 144.534 17.1542 144.386 17.019C144.238 16.8838 144.044 16.8092 143.844 16.81L134.704 16.86C134.33 16.86 134.144 17.0466 134.144 17.42L134.134 50.84C134.134 50.9779 134.189 51.1101 134.286 51.2076C134.384 51.3051 134.516 51.36 134.654 51.36L143.924 51.35C144.41 51.3433 144.654 51.0966 144.654 50.61C144.694 45.5833 144.684 39.8033 144.624 33.2699C144.584 29.3599 145.604 26.01 150.174 25.53C153.964 25.12 156.934 27.34 156.934 31.17C156.927 38.4833 156.917 45.0266 156.904 50.8C156.904 50.9458 156.962 51.0857 157.065 51.1889C157.168 51.292 157.308 51.35 157.454 51.35L166.874 51.34C166.97 51.3401 167.066 51.3205 167.155 51.2823C167.244 51.2442 167.324 51.1883 167.391 51.1181C167.457 51.0479 167.508 50.9648 167.542 50.8739C167.575 50.7831 167.589 50.6865 167.584 50.59C167.344 45.2433 167.31 39.9566 167.484 34.73C167.657 29.33 167.09 25.35 165.784 22.79C162.004 15.38 151.864 13.7099 145.504 18.9299C145.037 19.3166 144.78 19.2066 144.734 18.6Z" stroke="#80B5E5" stroke-width="2"/>
<path d="M13.2034 28.93C16.2834 25.06 22.4634 25.2 25.4034 29.19C25.5658 29.4097 25.8035 29.5617 26.0711 29.6171C26.3386 29.6724 26.6172 29.6272 26.8534 29.49L34.3734 25.13C34.4721 25.0732 34.5576 24.9963 34.6245 24.9043C34.6915 24.8123 34.7383 24.7071 34.7618 24.5958C34.7854 24.4844 34.7853 24.3694 34.7614 24.2581C34.7376 24.1468 34.6906 24.0418 34.6234 23.95C27.1134 13.4299 11.4534 13.13 4.17341 23.86C-3.35659 34.96 3.27341 49.84 16.0734 51.99C23.5534 53.25 29.6634 50.7766 34.4034 44.5699C34.9567 43.8499 34.8367 43.2666 34.0434 42.8199L26.7534 38.71C26.5809 38.6117 26.3795 38.5769 26.1841 38.6116C25.9886 38.6463 25.8115 38.7483 25.6834 38.9C22.9701 42.1133 19.6967 42.9233 15.8634 41.33C11.0234 39.31 10.2934 32.58 13.2034 28.93Z" stroke="#80B5E5" stroke-width="2"/>
<path d="M183.253 38.3699C189.933 38.3366 196.787 38.3366 203.813 38.3699C204.747 38.3766 205.663 38.2999 206.563 38.1399C206.903 38.0866 207.087 37.8899 207.113 37.5499C209.743 9.66994 171.773 9.22993 171.413 33.8499C171.303 41.6499 175.543 48.5799 183.093 51.0899C190.983 53.7099 199.773 52.3699 205.213 45.7799C205.263 45.7192 205.299 45.6484 205.318 45.5725C205.337 45.4965 205.34 45.4172 205.326 45.3402C205.312 45.2631 205.281 45.1901 205.235 45.1261C205.19 45.0622 205.131 45.0089 205.063 44.9699L198.383 41.0199C198.132 40.8699 197.843 40.7941 197.551 40.8012C197.259 40.8082 196.975 40.898 196.733 41.06C192.703 43.73 185.423 44.1099 182.773 39.1599C182.493 38.6333 182.653 38.3699 183.253 38.3699Z" stroke="#80B5E5" stroke-width="2"/>
<path d="M246.213 34.13C246.213 29.2872 244.29 24.6426 240.865 21.2182C237.441 17.7938 232.796 15.87 227.953 15.87C223.11 15.87 218.466 17.7938 215.042 21.2182C211.617 24.6426 209.693 29.2872 209.693 34.13C209.693 38.9729 211.617 43.6174 215.042 47.0418C218.466 50.4662 223.11 52.39 227.953 52.39C232.796 52.39 237.441 50.4662 240.865 47.0418C244.29 43.6174 246.213 38.9729 246.213 34.13Z" stroke="#80B5E5" stroke-width="2"/>
<path d="M63.8436 30.61L77.7436 30.57C77.7755 30.57 77.806 30.5574 77.8285 30.5349C77.851 30.5124 77.8636 30.4818 77.8636 30.45V30.3801C77.862 29.698 77.6796 29.0232 77.3269 28.3941C76.9742 27.7651 76.458 27.1941 75.8079 26.7139C75.1577 26.2338 74.3864 25.8538 73.5381 25.5958C72.6897 25.3377 71.7809 25.2066 70.8636 25.21H70.6836C68.8338 25.2168 67.0617 25.7694 65.7566 26.7463C64.4516 27.7232 63.7204 29.0446 63.7236 30.42V30.4901C63.7236 30.5219 63.7363 30.5524 63.7588 30.5749C63.7813 30.5974 63.8118 30.61 63.8436 30.61Z" stroke="#80B5E5" stroke-width="2"/>
<path d="M117.548 33.1877C117.543 32.2212 117.348 31.2651 116.973 30.3741C116.599 29.4831 116.052 28.6746 115.365 27.9947C114.678 27.3149 113.864 26.777 112.969 26.4118C112.074 26.0466 111.116 25.8613 110.15 25.8663L108.73 25.8737C107.763 25.8788 106.807 26.0741 105.916 26.4486C105.025 26.8232 104.217 27.3696 103.537 28.0566C102.857 28.7436 102.319 29.5578 101.954 30.4527C101.589 31.3476 101.403 32.3057 101.408 33.2722L101.418 35.1321C101.423 36.0986 101.619 37.0546 101.993 37.9457C102.368 38.8367 102.914 39.6452 103.601 40.3251C104.288 41.0049 105.102 41.5428 105.997 41.908C106.892 42.2732 107.85 42.4585 108.817 42.4535L110.237 42.4461C111.203 42.441 112.159 42.2457 113.05 41.8711C113.941 41.4966 114.75 40.9502 115.429 40.2632C116.109 39.5761 116.647 38.7619 117.012 37.867C117.378 36.9722 117.563 36.0141 117.558 35.0476L117.548 33.1877Z" stroke="#80B5E5" stroke-width="2"/>
<path d="M182.563 30.5799L196.603 30.5999C196.632 30.5999 196.66 30.5883 196.681 30.5677C196.702 30.5471 196.713 30.5191 196.713 30.4899V30.4199C196.714 29.734 196.533 29.0546 196.181 28.4205C195.829 27.7864 195.313 27.21 194.662 26.7243C194.011 26.2386 193.238 25.8531 192.387 25.5898C191.536 25.3265 190.624 25.1907 189.703 25.1899H189.463C187.605 25.1885 185.823 25.7364 184.508 26.7134C183.194 27.6903 182.455 29.0163 182.453 30.3999V30.4699C182.453 30.4991 182.465 30.527 182.485 30.5477C182.506 30.5683 182.534 30.5799 182.563 30.5799Z" stroke="#80B5E5" stroke-width="2"/>
<path d="M217.513 32.8C216.453 30.94 219.933 28.05 221.143 27.05C221.288 26.9318 221.395 26.773 221.45 26.5933C221.505 26.4136 221.506 26.2212 221.453 26.04C221.2 25.16 220.61 24.95 219.683 25.41C219.196 25.65 218.79 25.9866 218.463 26.42C215.056 30.9 214.506 35.5166 216.813 40.2699C222.473 51.9299 240.573 47.33 240.113 34.12C240.08 33.06 239.913 33.0366 239.613 34.05C239.093 35.85 238.213 37.1699 236.973 38.0099C233.953 40.0699 231.013 36.24 227.833 37.18C224.873 38.06 221.553 41.59 219.493 36.9C218.693 35.0599 220.413 32.97 221.463 31.54C221.557 31.4124 221.616 31.2622 221.634 31.1045C221.651 30.9469 221.627 30.7874 221.563 30.6422C221.499 30.497 221.398 30.3713 221.269 30.2779C221.141 30.1844 220.991 30.1265 220.833 30.11C219.686 29.99 218.84 30.8566 218.293 32.7099C218.268 32.7891 218.221 32.8594 218.157 32.9123C218.093 32.9651 218.015 32.9983 217.932 33.0079C217.85 33.0174 217.766 33.0028 217.692 32.9659C217.617 32.929 217.555 32.8714 217.513 32.8Z" stroke="#80B5E5" stroke-width="2"/>
<path d="M234.594 35.3699C234.034 35.5833 233.76 35.3932 233.774 34.7999C233.814 32.0932 234.897 30.4432 237.024 29.8499C237.189 29.8036 237.34 29.7175 237.465 29.5991C237.589 29.4807 237.682 29.3337 237.737 29.1709C237.791 29.0081 237.804 28.8344 237.776 28.6651C237.748 28.4958 237.678 28.3361 237.574 28.1999C236.52 26.8465 235.23 25.8766 233.704 25.2899C233.485 25.2058 233.248 25.1846 233.02 25.2288C232.791 25.2731 232.581 25.3809 232.414 25.5399C231.144 26.7199 229.684 27.4799 228.314 25.7499C228.087 25.4636 227.776 25.2575 227.425 25.162C227.073 25.0666 226.701 25.0869 226.364 25.2199C225.03 25.7466 223.79 26.5066 222.644 27.4999C222.526 27.6008 222.444 27.737 222.409 27.8884C222.375 28.0397 222.391 28.1981 222.454 28.3399C222.94 29.4399 223.774 30.0766 224.954 30.2499C225.093 30.2694 225.222 30.3332 225.322 30.4321C225.423 30.531 225.49 30.6598 225.514 30.7999C225.76 32.3532 225.72 33.8266 225.394 35.2199C225.371 35.3142 225.375 35.4132 225.406 35.5052C225.437 35.5972 225.493 35.6784 225.569 35.7393C225.645 35.8002 225.736 35.8383 225.833 35.849C225.929 35.8598 226.027 35.8427 226.114 35.7999C227.86 34.9532 229.487 34.8899 230.994 35.6099C231.387 35.7966 231.797 35.9299 232.224 36.0099L235.924 36.7199C236.105 36.7558 236.294 36.7371 236.468 36.6662C236.642 36.5952 236.793 36.475 236.904 36.3199L237.094 36.0599C237.136 36.0001 237.164 35.9317 237.176 35.8597C237.188 35.7878 237.184 35.7143 237.164 35.6448C237.144 35.5754 237.108 35.5118 237.059 35.459C237.011 35.4061 236.951 35.3654 236.884 35.3399C236.13 35.0532 235.367 35.0633 234.594 35.3699Z" stroke="#80B5E5" stroke-width="2"/>
<path d="M223.611 36.0515C223.596 35.7576 223.423 35.4839 223.131 35.2907C222.84 35.0976 222.452 35.0008 222.055 35.0216C221.658 35.0424 221.283 35.1792 221.013 35.4018C220.743 35.6244 220.6 35.9146 220.615 36.2086C220.631 36.5026 220.803 36.7762 221.095 36.9694C221.387 37.1626 221.774 37.2594 222.171 37.2386C222.569 37.2177 222.944 37.081 223.214 36.8584C223.484 36.6358 223.627 36.3455 223.611 36.0515Z" stroke="#80B5E5" stroke-width="2"/>
<path d="M230.194 40.9513C230.268 40.6417 230.192 40.3099 229.984 40.0288C229.775 39.7478 229.45 39.5406 229.081 39.4527C228.899 39.4091 228.711 39.3962 228.528 39.4146C228.345 39.4331 228.171 39.4826 228.016 39.5602C227.861 39.6378 227.728 39.7421 227.625 39.867C227.521 39.992 227.449 40.1353 227.412 40.2885C227.339 40.5981 227.414 40.93 227.623 41.211C227.832 41.4921 228.156 41.6994 228.525 41.7873C228.708 41.8308 228.896 41.8437 229.079 41.8252C229.262 41.8068 229.435 41.7573 229.59 41.6797C229.745 41.6021 229.878 41.4978 229.982 41.3728C230.086 41.2479 230.158 41.1046 230.194 40.9513Z" stroke="#80B5E5" stroke-width="2"/>
<path d="M233.872 41.2874C233.896 41.184 233.832 41.0651 233.695 40.9568C233.558 40.8485 233.36 40.7598 233.142 40.71C233.035 40.6854 232.926 40.6711 232.822 40.6679C232.718 40.6647 232.622 40.6728 232.537 40.6916C232.453 40.7104 232.383 40.7396 232.331 40.7775C232.279 40.8153 232.246 40.8612 232.234 40.9124C232.211 41.0158 232.274 41.1348 232.411 41.243C232.548 41.3513 232.747 41.4401 232.964 41.4898C233.071 41.5144 233.18 41.5288 233.284 41.5319C233.388 41.5351 233.485 41.527 233.569 41.5082C233.653 41.4894 233.723 41.4602 233.775 41.4224C233.827 41.3845 233.86 41.3386 233.872 41.2874Z" stroke="#80B5E5" stroke-width="2"/>
<path d="M232.631 33.3178C232.618 33.1086 232.499 32.9146 232.299 32.7785C232.099 32.6423 231.835 32.5751 231.565 32.5916C231.431 32.5997 231.3 32.6282 231.179 32.6754C231.058 32.7225 230.949 32.7875 230.859 32.8665C230.769 32.9455 230.699 33.0371 230.654 33.1359C230.609 33.2347 230.589 33.3388 230.595 33.4423C230.608 33.6515 230.727 33.8455 230.927 33.9816C231.127 34.1178 231.391 34.185 231.661 34.1685C231.795 34.1604 231.926 34.1319 232.047 34.0847C232.168 34.0376 232.277 33.9726 232.367 33.8936C232.457 33.8146 232.527 33.7231 232.572 33.6243C232.617 33.5255 232.637 33.4213 232.631 33.3178Z" stroke="#80B5E5" stroke-width="2"/>
<path d="M47.8831 1H37.9631C37.8195 1 37.7031 1.11642 37.7031 1.26001V51.1C37.7031 51.2436 37.8195 51.36 37.9631 51.36H47.8831C48.0267 51.36 48.1431 51.2436 48.1431 51.1V1.26001C48.1431 1.11642 48.0267 1 47.8831 1Z" fill="white"/>
<path d="M63.9734 39.21C66.8234 44.03 73.7634 43.8 77.9334 41.03C78.1636 40.8741 78.4333 40.7866 78.7112 40.7778C78.989 40.7689 79.2638 40.839 79.5034 40.98L86.1834 44.89C86.2826 44.9476 86.3674 45.0269 86.4316 45.1219C86.4958 45.217 86.5376 45.3254 86.554 45.4389C86.5703 45.5524 86.5608 45.6681 86.526 45.7774C86.4913 45.8867 86.4323 45.9867 86.3534 46.07C80.8201 51.89 73.8401 53.67 65.4134 51.41C50.5834 47.42 47.9634 26.4 60.9434 18.66C72.0534 12.03 87.5534 18.09 88.3634 32.31C88.4634 33.9967 88.4667 35.6267 88.3734 37.2C88.3581 37.5061 88.2252 37.7948 88.0021 38.0068C87.7789 38.2187 87.4824 38.338 87.1734 38.34L64.4534 38.36C63.8001 38.36 63.6401 38.6433 63.9734 39.21ZM63.8434 30.61L77.7434 30.57C77.7752 30.57 77.8057 30.5574 77.8282 30.5349C77.8508 30.5124 77.8634 30.4818 77.8634 30.45V30.38C77.8618 29.698 77.6794 29.0231 77.3267 28.3941C76.9739 27.765 76.4577 27.1941 75.8076 26.7139C75.1575 26.2338 74.3862 25.8538 73.5378 25.5957C72.6895 25.3377 71.7807 25.2066 70.8634 25.21H70.6834C68.8335 25.2168 67.0614 25.7694 65.7564 26.7463C64.4513 27.7232 63.7201 29.0445 63.7234 30.42V30.49C63.7234 30.5219 63.736 30.5524 63.7585 30.5749C63.781 30.5974 63.8116 30.61 63.8434 30.61Z" fill="white"/>
<path d="M117.424 18.94C117.397 18.3733 117.484 17.8367 117.684 17.33C117.81 17.0034 118.05 16.84 118.404 16.84L127.684 16.83C127.748 16.83 127.812 16.8427 127.871 16.8673C127.931 16.8919 127.985 16.928 128.03 16.9735C128.076 17.019 128.112 17.073 128.136 17.1325C128.161 17.1919 128.174 17.2557 128.174 17.32V50.71C128.174 50.8771 128.107 51.0373 127.989 51.1555C127.871 51.2736 127.711 51.34 127.544 51.34L118.374 51.37C118.007 51.37 117.79 51.1866 117.724 50.82L117.474 49.35C117.455 49.247 117.41 49.1508 117.342 49.0711C117.274 48.9915 117.187 48.9313 117.088 48.8967C116.989 48.8621 116.883 48.8544 116.78 48.8743C116.678 48.8942 116.582 48.941 116.504 49.01C112.364 52.72 106.474 53.21 101.654 51.14C89.1337 45.79 87.1737 28.15 97.5637 19.49C103.034 14.94 111.524 14.69 116.784 19.25C117.23 19.6367 117.444 19.5333 117.424 18.94ZM117.549 33.1878C117.544 32.2213 117.348 31.2653 116.974 30.3742C116.599 29.4832 116.053 28.6747 115.366 27.9948C114.679 27.315 113.865 26.7771 112.97 26.4119C112.075 26.0467 111.117 25.8614 110.15 25.8664L108.73 25.8738C107.764 25.8789 106.808 26.0742 105.917 26.4488C105.026 26.8233 104.217 27.3697 103.537 28.0567C102.857 28.7438 102.32 29.558 101.954 30.4529C101.589 31.3477 101.404 32.3058 101.409 33.2723L101.419 35.1322C101.424 36.0988 101.619 37.0548 101.994 37.9458C102.368 38.8368 102.915 39.6453 103.602 40.3252C104.289 41.005 105.103 41.5429 105.998 41.9081C106.893 42.2733 107.851 42.4586 108.817 42.4536L110.237 42.4462C111.204 42.4411 112.16 42.2458 113.051 41.8713C113.942 41.4967 114.75 40.9503 115.43 40.2633C116.11 39.5763 116.648 38.7621 117.013 37.8672C117.378 36.9723 117.564 36.0142 117.558 35.0477L117.549 33.1878Z" fill="white"/>
<path d="M145.504 18.9299C151.864 13.7099 162.004 15.38 165.784 22.79C167.09 25.35 167.657 29.33 167.484 34.73C167.31 39.9566 167.344 45.2433 167.584 50.59C167.589 50.6865 167.575 50.7831 167.542 50.8739C167.508 50.9648 167.457 51.0479 167.391 51.1181C167.324 51.1883 167.244 51.2442 167.155 51.2823C167.066 51.3205 166.97 51.3401 166.874 51.34L157.454 51.35C157.308 51.35 157.168 51.292 157.065 51.1889C156.962 51.0857 156.904 50.9458 156.904 50.8C156.917 45.0266 156.927 38.4833 156.934 31.17C156.934 27.34 153.964 25.12 150.174 25.53C145.604 26.01 144.584 29.3599 144.624 33.2699C144.684 39.8033 144.694 45.5833 144.654 50.61C144.654 51.0966 144.41 51.3433 143.924 51.35L134.654 51.36C134.516 51.36 134.384 51.3051 134.286 51.2076C134.189 51.1101 134.134 50.9779 134.134 50.84L134.144 17.42C134.144 17.0466 134.33 16.86 134.704 16.86L143.844 16.81C144.044 16.8092 144.238 16.8838 144.386 17.019C144.534 17.1542 144.626 17.3401 144.644 17.54L144.734 18.6C144.78 19.2066 145.037 19.3166 145.504 18.9299Z" fill="white"/>
<path d="M25.4034 29.19C22.4634 25.2 16.2834 25.06 13.2034 28.93C10.2934 32.58 11.0234 39.31 15.8634 41.33C19.6967 42.9233 22.9701 42.1133 25.6834 38.9C25.8115 38.7483 25.9886 38.6463 26.1841 38.6116C26.3795 38.5769 26.5809 38.6117 26.7534 38.71L34.0434 42.8199C34.8367 43.2666 34.9567 43.8499 34.4034 44.5699C29.6634 50.7766 23.5534 53.25 16.0734 51.99C3.27341 49.84 -3.35659 34.96 4.17341 23.86C11.4534 13.13 27.1134 13.4299 34.6234 23.95C34.6906 24.0418 34.7376 24.1468 34.7614 24.2581C34.7853 24.3694 34.7854 24.4844 34.7618 24.5958C34.7383 24.7071 34.6915 24.8123 34.6245 24.9043C34.5576 24.9963 34.4721 25.0732 34.3734 25.13L26.8534 29.49C26.6172 29.6272 26.3386 29.6724 26.0711 29.6171C25.8035 29.5617 25.5658 29.4097 25.4034 29.19Z" fill="white"/>
<path d="M182.773 39.1599C185.423 44.1099 192.703 43.73 196.733 41.06C196.975 40.898 197.259 40.8082 197.551 40.8012C197.843 40.7941 198.132 40.8699 198.383 41.0199L205.063 44.9699C205.131 45.0089 205.19 45.0622 205.235 45.1261C205.281 45.1901 205.312 45.2631 205.326 45.3402C205.34 45.4172 205.337 45.4965 205.318 45.5725C205.299 45.6484 205.263 45.7192 205.213 45.7799C199.773 52.3699 190.983 53.7099 183.093 51.0899C175.543 48.5799 171.303 41.6499 171.413 33.8499C171.773 9.22993 209.743 9.66994 207.113 37.5499C207.087 37.8899 206.903 38.0866 206.563 38.1399C205.663 38.2999 204.747 38.3766 203.813 38.3699C196.787 38.3366 189.933 38.3366 183.253 38.3699C182.653 38.3699 182.493 38.6333 182.773 39.1599ZM182.563 30.5799L196.603 30.5999C196.632 30.5999 196.66 30.5883 196.681 30.5677C196.702 30.5471 196.713 30.5191 196.713 30.4899V30.4199C196.714 29.7341 196.533 29.0546 196.181 28.4205C195.829 27.7864 195.313 27.21 194.662 26.7243C194.011 26.2386 193.238 25.8531 192.387 25.5898C191.536 25.3265 190.624 25.1907 189.703 25.19H189.463C187.605 25.1885 185.823 25.7365 184.509 26.7134C183.194 27.6903 182.455 29.0163 182.453 30.3999V30.4699C182.453 30.4991 182.465 30.5271 182.485 30.5477C182.506 30.5683 182.534 30.5799 182.563 30.5799Z" fill="white"/>
<path d="M246.213 34.13C246.213 38.9729 244.29 43.6174 240.865 47.0418C237.441 50.4662 232.796 52.39 227.953 52.39C223.11 52.39 218.466 50.4662 215.042 47.0418C211.617 43.6174 209.693 38.9729 209.693 34.13C209.693 29.2872 211.617 24.6426 215.042 21.2182C218.466 17.7938 223.11 15.87 227.953 15.87C232.796 15.87 237.441 17.7938 240.865 21.2182C244.29 24.6426 246.213 29.2872 246.213 34.13ZM217.513 32.8C216.453 30.94 219.933 28.05 221.143 27.05C221.288 26.9319 221.395 26.773 221.45 26.5934C221.505 26.4137 221.506 26.2212 221.453 26.04C221.2 25.16 220.61 24.95 219.683 25.41C219.197 25.65 218.79 25.9867 218.463 26.42C215.057 30.9 214.507 35.5167 216.813 40.27C222.473 51.93 240.573 47.33 240.113 34.12C240.08 33.06 239.913 33.0367 239.613 34.05C239.093 35.85 238.213 37.17 236.973 38.01C233.953 40.07 231.013 36.24 227.833 37.18C224.873 38.06 221.553 41.59 219.493 36.9C218.693 35.06 220.413 32.97 221.463 31.54C221.558 31.4124 221.617 31.2622 221.634 31.1046C221.652 30.9469 221.627 30.7874 221.563 30.6422C221.499 30.4971 221.398 30.3714 221.27 30.2779C221.142 30.1845 220.991 30.1265 220.833 30.11C219.687 29.99 218.84 30.8567 218.293 32.71C218.268 32.7892 218.221 32.8595 218.157 32.9123C218.093 32.9652 218.015 32.9984 217.933 33.0079C217.85 33.0174 217.767 33.0029 217.692 32.966C217.618 32.9291 217.556 32.8714 217.513 32.8ZM234.593 35.37C234.033 35.5834 233.76 35.3934 233.773 34.8C233.813 32.0934 234.897 30.4433 237.023 29.85C237.189 29.8037 237.34 29.7176 237.464 29.5992C237.589 29.4808 237.682 29.3338 237.736 29.171C237.791 29.0082 237.804 28.8345 237.776 28.6652C237.747 28.4959 237.678 28.3362 237.573 28.2C236.52 26.8466 235.23 25.8767 233.703 25.29C233.485 25.2059 233.247 25.1847 233.019 25.2289C232.791 25.2732 232.581 25.381 232.413 25.54C231.143 26.72 229.683 27.48 228.313 25.75C228.087 25.4637 227.775 25.2576 227.424 25.1621C227.073 25.0667 226.701 25.087 226.363 25.22C225.03 25.7467 223.79 26.5067 222.643 27.5C222.525 27.6009 222.443 27.7371 222.409 27.8885C222.375 28.0398 222.39 28.1982 222.453 28.34C222.94 29.44 223.773 30.0767 224.953 30.25C225.092 30.2695 225.221 30.3333 225.322 30.4322C225.422 30.5311 225.49 30.6599 225.513 30.8C225.76 32.3534 225.72 33.8267 225.393 35.22C225.37 35.3143 225.374 35.4133 225.405 35.5053C225.436 35.5973 225.493 35.6785 225.569 35.7394C225.644 35.8003 225.736 35.8384 225.832 35.8492C225.929 35.8599 226.026 35.8428 226.113 35.8C227.86 34.9534 229.487 34.89 230.993 35.61C231.387 35.7967 231.797 35.93 232.223 36.01L235.923 36.72C236.105 36.7559 236.294 36.7372 236.468 36.6663C236.642 36.5953 236.793 36.4751 236.903 36.32L237.093 36.06C237.135 36.0003 237.164 35.9318 237.176 35.8598C237.188 35.7879 237.184 35.7144 237.163 35.6449C237.143 35.5755 237.107 35.5119 237.059 35.4591C237.01 35.4062 236.95 35.3655 236.883 35.34C236.13 35.0533 235.367 35.0634 234.593 35.37ZM223.611 36.0515C223.596 35.7575 223.423 35.4838 223.131 35.2907C222.84 35.0975 222.453 35.0007 222.055 35.0215C221.658 35.0423 221.283 35.1791 221.013 35.4017C220.743 35.6243 220.6 35.9145 220.615 36.2085C220.631 36.5025 220.803 36.7762 221.095 36.9693C221.387 37.1625 221.774 37.2593 222.171 37.2385C222.569 37.2177 222.944 37.0809 223.214 36.8583C223.484 36.6357 223.627 36.3455 223.611 36.0515Z" fill="white"/>
<path d="M231.661 34.1686C232.224 34.1342 232.658 33.7533 232.631 33.3178C232.605 32.8823 232.127 32.5571 231.565 32.5915C231.003 32.6259 230.568 33.0068 230.595 33.4423C230.622 33.8778 231.099 34.203 231.661 34.1686Z" fill="white"/>
<path d="M222.172 37.2384C222.999 37.1951 223.644 36.6636 223.612 36.0514C223.58 35.4393 222.883 34.9781 222.056 35.0215C221.228 35.0648 220.584 35.5963 220.616 36.2085C220.648 36.8207 221.344 37.2818 222.172 37.2384Z" fill="#006ACA"/>
<path d="M228.525 41.7873C229.294 41.9703 230.041 41.596 230.194 40.9513C230.348 40.3066 229.85 39.6356 229.081 39.4526C228.313 39.2696 227.566 39.6438 227.412 40.2885C227.259 40.9332 227.757 41.6043 228.525 41.7873Z" fill="white"/>
<path d="M232.964 41.4898C233.417 41.5934 233.823 41.5028 233.873 41.2874C233.922 41.0721 233.595 40.8136 233.143 40.71C232.691 40.6064 232.284 40.697 232.235 40.9124C232.186 41.1277 232.512 41.3862 232.964 41.4898Z" fill="white"/>
</svg>
