<svg width="190" height="40" viewBox="0 0 190 40" fill="none" xmlns="http://www.w3.org/2000/svg">
<path d="M36.3263 0H28.6399C28.5287 0 28.4385 0.090203 28.4385 0.201465V38.8193C28.4385 38.9305 28.5287 39.0207 28.6399 39.0207H36.3263C36.4376 39.0207 36.5278 38.9305 36.5278 38.8193V0.201465C36.5278 0.090203 36.4376 0 36.3263 0Z" fill="white"/>
<path d="M48.794 29.6067C51.0023 33.3414 56.3796 33.1632 59.6107 31.0169C59.789 30.8961 59.998 30.8283 60.2133 30.8215C60.4286 30.8146 60.6415 30.869 60.8272 30.9782L66.0031 34.0078C66.0799 34.0524 66.1457 34.1139 66.1954 34.1875C66.2451 34.2612 66.2776 34.3451 66.2902 34.4331C66.3029 34.5211 66.2955 34.6107 66.2686 34.6954C66.2417 34.7801 66.1959 34.8576 66.1348 34.9221C61.8474 39.4316 56.439 40.8109 49.9097 39.0597C38.4189 35.9681 36.3889 19.6811 46.4462 13.6839C55.0547 8.54672 67.0646 13.2422 67.6922 24.2604C67.7697 25.5673 67.7723 26.8302 67.7 28.0493C67.6881 28.2865 67.5852 28.5102 67.4123 28.6744C67.2394 28.8387 67.0096 28.9311 66.7702 28.9326L49.1659 28.9482C48.6597 28.9482 48.5357 29.1677 48.794 29.6067ZM48.6933 22.9432L59.4635 22.9122C59.4881 22.9122 59.5118 22.9024 59.5292 22.885C59.5467 22.8675 59.5565 22.8438 59.5565 22.8192V22.765C59.5552 22.2365 59.4139 21.7136 59.1406 21.2262C58.8672 20.7388 58.4673 20.2964 57.9636 19.9243C57.4598 19.5523 56.8622 19.2579 56.2049 19.0579C55.5475 18.858 54.8433 18.7564 54.1326 18.759H53.9931C52.5598 18.7643 51.1867 19.1925 50.1755 19.9494C49.1643 20.7064 48.5978 21.7302 48.6003 22.796V22.8502C48.6003 22.8749 48.6101 22.8985 48.6275 22.9159C48.6449 22.9334 48.6686 22.9432 48.6933 22.9432Z" fill="white"/>
<path d="M90.209 13.9007C90.1883 13.4616 90.2555 13.0458 90.4104 12.6532C90.5086 12.4001 90.6945 12.2736 90.9683 12.2736L98.1588 12.2658C98.2086 12.2658 98.258 12.2756 98.3041 12.2947C98.3501 12.3138 98.392 12.3418 98.4272 12.377C98.4625 12.4123 98.4905 12.4541 98.5095 12.5002C98.5286 12.5462 98.5385 12.5956 98.5385 12.6455V38.5172C98.5385 38.6467 98.487 38.7709 98.3955 38.8624C98.3039 38.954 98.1798 39.0054 98.0503 39.0054L90.9451 39.0287C90.661 39.0287 90.4931 38.8866 90.4414 38.6025L90.2477 37.4635C90.2335 37.3837 90.1983 37.3091 90.1458 37.2474C90.0933 37.1857 90.0253 37.139 89.9489 37.1122C89.8724 37.0854 89.7902 37.0794 89.7106 37.0949C89.6311 37.1103 89.557 37.1466 89.4961 37.2C86.2883 40.0746 81.7245 40.4543 77.9898 38.8504C68.2889 34.705 66.7702 21.037 74.8207 14.3269C79.0591 10.8014 85.6374 10.6077 89.7131 14.1409C90.0592 14.4405 90.2245 14.3605 90.209 13.9007ZM90.3058 24.9404C90.3019 24.1916 90.1505 23.4508 89.8603 22.7604C89.5701 22.07 89.1468 21.4435 88.6144 20.9167C88.0821 20.39 87.4513 19.9732 86.7579 19.6902C86.0645 19.4072 85.3222 19.2636 84.5733 19.2676L83.473 19.2733C82.7241 19.2772 81.9833 19.4286 81.2929 19.7188C80.6025 20.009 79.9761 20.4324 79.4493 20.9647C78.9225 21.497 78.5058 22.1279 78.2228 22.8213C77.9398 23.5147 77.7962 24.257 77.8001 25.0059L77.8077 26.447C77.8116 27.1959 77.963 27.9367 78.2532 28.6271C78.5434 29.3174 78.9668 29.9439 79.4991 30.4707C80.0314 30.9975 80.6623 31.4143 81.3557 31.6972C82.0491 31.9802 82.7914 32.1238 83.5403 32.1199L84.6405 32.1142C85.3894 32.1102 86.1302 31.9589 86.8206 31.6687C87.511 31.3784 88.1375 30.9551 88.6643 30.4227C89.191 29.8904 89.6078 29.2595 89.8908 28.5662C90.1737 27.8728 90.3173 27.1304 90.3134 26.3815L90.3058 24.9404Z" fill="white"/>
<path d="M111.967 13.8931C116.895 9.84842 124.751 11.1424 127.68 16.8839C128.693 18.8675 129.132 21.9514 128.998 26.1355C128.863 30.1853 128.889 34.2816 129.075 38.4243C129.079 38.4992 129.068 38.574 129.042 38.6444C129.017 38.7148 128.977 38.7792 128.925 38.8336C128.874 38.888 128.812 38.9313 128.743 38.9608C128.674 38.9904 128.6 39.0056 128.525 39.0055L121.226 39.0132C121.113 39.0132 121.004 38.9683 120.925 38.8884C120.845 38.8085 120.8 38.7001 120.8 38.5871C120.81 34.1137 120.818 29.0437 120.823 23.3771C120.823 20.4094 118.522 18.6893 115.585 19.007C112.044 19.3789 111.254 21.9746 111.285 25.0042C111.331 30.0665 111.339 34.545 111.308 38.4399C111.308 38.8169 111.119 39.0081 110.742 39.0132L103.56 39.021C103.453 39.021 103.35 38.9785 103.275 38.9029C103.199 38.8274 103.157 38.7249 103.157 38.6181L103.164 12.7231C103.164 12.4338 103.309 12.2892 103.598 12.2892L110.68 12.2504C110.836 12.2498 110.986 12.3076 111.101 12.4124C111.215 12.5171 111.287 12.6612 111.3 12.816L111.37 13.6374C111.406 14.1074 111.605 14.1927 111.967 13.8931Z" fill="white"/>
<path d="M18.9086 21.8423C16.6306 18.7507 11.8421 18.6422 9.45564 21.6408C7.20087 24.469 7.76649 29.6836 11.5167 31.2488C14.4869 32.4833 17.0232 31.8557 19.1256 29.3659C19.2248 29.2484 19.3621 29.1694 19.5135 29.1425C19.6649 29.1156 19.821 29.1426 19.9547 29.2187L25.6032 32.4033C26.2179 32.7493 26.3109 33.2013 25.8821 33.7592C22.2094 38.5684 17.4752 40.4848 11.6794 39.5085C1.76152 37.8426 -3.37564 26.3131 2.45887 17.7124C8.09967 9.39842 20.2336 9.63084 26.0526 17.7821C26.1046 17.8533 26.1411 17.9347 26.1596 18.0209C26.178 18.1071 26.1782 18.1962 26.1599 18.2825C26.1416 18.3688 26.1053 18.4503 26.0535 18.5216C26.0016 18.5929 25.9353 18.6525 25.8589 18.6965L20.0321 22.0747C19.8491 22.181 19.6333 22.2161 19.426 22.1732C19.2187 22.1303 19.0345 22.0125 18.9086 21.8423Z" fill="white"/>
<path d="M140.845 29.5676C142.898 33.4031 148.539 33.1086 151.661 31.0398C151.849 30.9143 152.069 30.8448 152.295 30.8393C152.521 30.8338 152.745 30.8926 152.94 31.0088L158.116 34.0694C158.169 34.0996 158.214 34.1409 158.249 34.1904C158.284 34.24 158.308 34.2966 158.319 34.3563C158.33 34.416 158.328 34.4774 158.313 34.5363C158.298 34.5951 158.27 34.65 158.232 34.697C154.017 39.8032 147.206 40.8415 141.093 38.8114C135.243 36.8666 131.957 31.497 132.043 25.4532C132.322 6.3768 161.742 6.71774 159.704 28.3201C159.684 28.5836 159.542 28.736 159.278 28.7773C158.581 28.9012 157.87 28.9607 157.147 28.9555C151.703 28.9297 146.393 28.9297 141.217 28.9555C140.752 28.9555 140.628 29.1595 140.845 29.5676ZM140.682 22.9195L151.561 22.935C151.583 22.935 151.605 22.926 151.621 22.9101C151.637 22.8941 151.646 22.8724 151.646 22.8498V22.7956C151.647 22.2641 151.507 21.7377 151.234 21.2463C150.961 20.755 150.561 20.3084 150.057 19.9321C149.552 19.5557 148.953 19.257 148.294 19.053C147.635 18.849 146.928 18.7438 146.214 18.7432H146.028C144.589 18.7421 143.208 19.1666 142.189 19.9236C141.171 20.6806 140.598 21.708 140.597 22.7801V22.8343C140.597 22.8569 140.606 22.8786 140.622 22.8946C140.638 22.9105 140.659 22.9195 140.682 22.9195Z" fill="white"/>
<path d="M190 25.6705C190 29.4229 188.509 33.0216 185.856 35.675C183.203 38.3283 179.604 39.819 175.852 39.819C172.099 39.819 168.5 38.3283 165.847 35.675C163.194 33.0216 161.703 29.4229 161.703 25.6705C161.703 21.9181 163.194 18.3193 165.847 15.666C168.5 13.0126 172.099 11.522 175.852 11.522C179.604 11.522 183.203 13.0126 185.856 15.666C188.509 18.3193 190 21.9181 190 25.6705ZM167.762 24.64C166.941 23.1988 169.637 20.9595 170.575 20.1847C170.687 20.0931 170.77 19.97 170.813 19.8308C170.856 19.6916 170.856 19.5425 170.815 19.4021C170.619 18.7202 170.162 18.5575 169.444 18.9139C169.067 19.0999 168.752 19.3607 168.498 19.6965C165.859 23.1678 165.433 26.7449 167.22 30.428C171.606 39.4625 185.63 35.8983 185.274 25.6627C185.248 24.8414 185.119 24.8233 184.886 25.6085C184.483 27.0032 183.801 28.026 182.841 28.6768C180.501 30.273 178.223 27.3054 175.759 28.0337C173.465 28.7156 170.893 31.4507 169.297 27.8168C168.677 26.3911 170.009 24.7717 170.823 23.6637C170.896 23.5648 170.942 23.4484 170.955 23.3263C170.969 23.2041 170.95 23.0805 170.9 22.968C170.851 22.8556 170.772 22.7582 170.673 22.6857C170.574 22.6133 170.457 22.5685 170.335 22.5556C169.446 22.4627 168.79 23.1342 168.367 24.5702C168.347 24.6316 168.311 24.686 168.261 24.727C168.211 24.7679 168.151 24.7937 168.087 24.801C168.023 24.8084 167.959 24.7971 167.901 24.7685C167.843 24.74 167.795 24.6953 167.762 24.64ZM180.997 26.6313C180.563 26.7966 180.351 26.6494 180.361 26.1896C180.392 24.0924 181.232 22.8139 182.879 22.3542C183.007 22.3183 183.125 22.2516 183.221 22.1599C183.317 22.0681 183.39 21.9542 183.432 21.8281C183.474 21.7019 183.484 21.5673 183.462 21.4361C183.44 21.305 183.386 21.1812 183.306 21.0757C182.489 20.0271 181.49 19.2755 180.307 18.8209C180.137 18.7557 179.954 18.7393 179.777 18.7736C179.6 18.8079 179.437 18.8915 179.307 19.0146C178.323 19.9289 177.192 20.5178 176.131 19.1774C175.955 18.9555 175.714 18.7958 175.442 18.7219C175.169 18.6479 174.881 18.6636 174.62 18.7667C173.587 19.1748 172.626 19.7637 171.737 20.5333C171.646 20.6115 171.582 20.717 171.556 20.8343C171.529 20.9516 171.541 21.0743 171.59 21.1842C171.967 22.0365 172.613 22.5298 173.527 22.6641C173.635 22.6793 173.735 22.7287 173.813 22.8053C173.891 22.8819 173.943 22.9817 173.961 23.0903C174.152 24.2939 174.121 25.4354 173.868 26.515C173.85 26.5881 173.853 26.6648 173.877 26.7361C173.901 26.8074 173.945 26.8703 174.004 26.9175C174.062 26.9647 174.133 26.9942 174.208 27.0025C174.283 27.0108 174.358 26.9976 174.426 26.9645C175.779 26.3084 177.04 26.2594 178.207 26.8172C178.512 26.9619 178.83 27.0652 179.16 27.1271L182.027 27.6773C182.168 27.7051 182.314 27.6907 182.449 27.6357C182.584 27.5807 182.701 27.4875 182.786 27.3673L182.934 27.1659C182.966 27.1196 182.988 27.0665 182.997 27.0108C183.007 26.9551 183.004 26.8981 182.988 26.8443C182.972 26.7905 182.944 26.7412 182.907 26.7003C182.869 26.6593 182.823 26.6278 182.771 26.608C182.187 26.3859 181.596 26.3937 180.997 26.6313ZM172.487 27.1593C172.475 26.9315 172.342 26.7195 172.115 26.5698C171.889 26.4201 171.589 26.3451 171.282 26.3612C170.974 26.3774 170.683 26.4834 170.474 26.6558C170.265 26.8283 170.154 27.0532 170.166 27.281C170.178 27.5088 170.312 27.7208 170.538 27.8705C170.764 28.0202 171.064 28.0952 171.372 28.079C171.679 28.0629 171.97 27.9569 172.179 27.7845C172.388 27.612 172.499 27.3871 172.487 27.1593Z" fill="white"/>
</svg>
