<?xml version="1.0" encoding="UTF-8" standalone="no"?>
<!DOCTYPE svg PUBLIC "-//W3C//DTD SVG 1.1//EN" "http://www.w3.org/Graphics/SVG/1.1/DTD/svg11.dtd">
<svg xmlns="http://www.w3.org/2000/svg" version="1.1" viewBox="0.00 0.00 378.00 660.00">
<g stroke-width="2.00" fill="none" stroke-linecap="butt">
<path stroke="#158fe4" vector-effect="non-scaling-stroke" d="
  M 378.00 319.50
  L 377.67 320.32
  Q 377.46 320.84 377.01 320.49
  C 358.82 306.37 335.72 308.18 315.66 316.67
  Q 297.44 324.38 280.65 334.88
  Q 260.92 347.22 241.62 359.09
  Q 227.90 367.54 214.96 373.60
  C 197.54 381.78 179.22 387.45 160.29 386.15
  C 140.58 384.80 121.34 374.29 108.03 360.09
  C 89.71 340.55 88.78 310.58 96.08 286.18
  C 101.23 268.97 109.94 253.75 121.68 240.33
  C 129.39 231.51 137.40 222.59 143.40 212.61
  C 150.83 200.27 153.59 183.62 146.65 170.74
  C 140.65 159.60 128.16 154.79 115.85 157.26
  C 101.96 160.06 91.03 170.61 84.31 182.94
  Q 73.15 203.39 69.98 228.27
  C 69.23 234.14 66.95 238.50 61.14 240.98
  Q 54.79 243.68 49.05 240.29
  C 42.38 236.34 40.63 225.89 41.36 218.39
  Q 41.94 212.42 43.58 206.78
  C 56.43 162.64 91.47 133.06 125.12 103.71
  C 135.16 94.95 144.80 83.57 148.27 70.58
  C 152.14 56.09 148.35 41.44 134.60 34.41
  C 122.73 28.36 108.10 34.13 98.04 41.00
  C 84.03 50.57 71.26 65.08 60.85 79.13
  C 48.22 96.17 36.22 115.58 25.98 135.13
  C 12.89 160.13 5.38 187.22 1.12 215.67
  C 0.96 216.75 1.22 218.01 0.91 219.08
  Q 0.57 220.25 0.44 219.04
  L 0.00 215.00"
/>
<path stroke="#158fe4" vector-effect="non-scaling-stroke" d="
  M 0.00 210.91
  L 0.00 202.88"
/>
<path stroke="#158fe4" vector-effect="non-scaling-stroke" d="
  M 238.41 104.44
  A 9.83 9.83 0.0 0 0 228.58 94.61
  A 9.83 9.83 0.0 0 0 218.75 104.44
  A 9.83 9.83 0.0 0 0 228.58 114.27
  A 9.83 9.83 0.0 0 0 238.41 104.44"
/>
<path stroke="#158fe4" vector-effect="non-scaling-stroke" d="
  M 323.78 236.13
  A 15.40 15.40 0.0 0 0 308.38 220.73
  A 15.40 15.40 0.0 0 0 292.98 236.13
  A 15.40 15.40 0.0 0 0 308.38 251.53
  A 15.40 15.40 0.0 0 0 323.78 236.13"
/>
<path stroke="#158fe4" vector-effect="non-scaling-stroke" d="
  M 180.62 323.23
  A 26.47 26.47 0.0 0 0 154.15 296.76
  A 26.47 26.47 0.0 0 0 127.68 323.23
  A 26.47 26.47 0.0 0 0 154.15 349.70
  A 26.47 26.47 0.0 0 0 180.62 323.23"
/>
<path stroke="#158fe4" vector-effect="non-scaling-stroke" d="
  M 67.66 370.31
  A 14.66 14.66 0.0 0 0 53.00 355.65
  A 14.66 14.66 0.0 0 0 38.34 370.31
  A 14.66 14.66 0.0 0 0 53.00 384.97
  A 14.66 14.66 0.0 0 0 67.66 370.31"
/>
<path stroke="#158fe4" vector-effect="non-scaling-stroke" d="
  M 323.79 426.12
  A 22.07 22.07 0.0 0 0 301.72 404.05
  A 22.07 22.07 0.0 0 0 279.65 426.12
  A 22.07 22.07 0.0 0 0 301.72 448.19
  A 22.07 22.07 0.0 0 0 323.79 426.12"
/>
<path stroke="#80b5e5" vector-effect="non-scaling-stroke" d="
  M 113.24 492.66
  A 0.26 0.26 0.0 0 0 112.98 492.40
  L 103.06 492.40
  A 0.26 0.26 0.0 0 0 102.80 492.66
  L 102.80 542.50
  A 0.26 0.26 0.0 0 0 103.06 542.76
  L 112.98 542.76
  A 0.26 0.26 0.0 0 0 113.24 542.50
  L 113.24 492.66"
/>
<path stroke="#80b5e5" vector-effect="non-scaling-stroke" d="
  M 129.55 529.76
  L 152.27 529.74
  A 1.21 1.20 1.3 0 0 153.47 528.60
  Q 153.61 526.24 153.46 523.71
  C 152.65 509.49 137.15 503.43 126.04 510.06
  C 113.06 517.80 115.68 538.82 130.51 542.81
  Q 143.15 546.20 151.45 537.47
  A 0.76 0.76 0.0 0 0 151.28 536.29
  L 144.60 532.38
  A 1.47 1.47 0.0 0 0 143.03 532.43
  C 138.86 535.20 131.92 535.43 129.07 530.61
  Q 128.57 529.76 129.55 529.76"
/>
<path stroke="#80b5e5" vector-effect="non-scaling-stroke" d="
  M 181.88 510.65
  C 176.62 506.09 168.13 506.34 162.66 510.89
  C 152.27 519.55 154.23 537.19 166.75 542.54
  C 171.57 544.61 177.46 544.12 181.60 540.41
  A 0.59 0.59 0.0 0 1 182.57 540.75
  L 182.82 542.22
  Q 182.92 542.77 183.47 542.77
  L 192.64 542.74
  A 0.63 0.63 0.0 0 0 193.27 542.11
  L 193.27 508.72
  A 0.49 0.49 0.0 0 0 192.78 508.23
  L 183.50 508.24
  Q 182.97 508.24 182.78 508.73
  Q 182.48 509.49 182.52 510.34
  Q 182.55 511.23 181.88 510.65"
/>
<path stroke="#80b5e5" vector-effect="non-scaling-stroke" d="
  M 209.83 510.00
  L 209.74 508.94
  A 0.80 0.80 0.0 0 0 208.94 508.21
  L 199.80 508.26
  Q 199.24 508.26 199.24 508.82
  L 199.23 542.24
  A 0.52 0.52 0.0 0 0 199.75 542.76
  L 209.02 542.75
  Q 209.75 542.74 209.75 542.01
  Q 209.81 534.47 209.72 524.67
  C 209.68 520.76 210.70 517.41 215.27 516.93
  C 219.06 516.52 222.03 518.74 222.03 522.57
  Q 222.02 533.54 222.00 542.20
  A 0.55 0.55 0.0 0 0 222.55 542.75
  L 231.97 542.74
  A 0.71 0.71 0.0 0 0 232.68 541.99
  Q 232.32 533.97 232.58 526.13
  Q 232.84 518.03 230.88 514.19
  C 227.10 506.78 216.96 505.11 210.60 510.33
  Q 209.90 510.91 209.83 510.00"
/>
<path stroke="#80b5e5" vector-effect="non-scaling-stroke" d="
  M 78.30 520.33
  C 81.38 516.46 87.56 516.60 90.50 520.59
  A 1.11 1.11 0.0 0 0 91.95 520.89
  L 99.47 516.53
  A 0.81 0.81 0.0 0 0 99.72 515.35
  C 92.21 504.83 76.55 504.53 69.27 515.26
  C 61.74 526.36 68.37 541.24 81.17 543.39
  Q 92.39 545.28 99.50 535.97
  Q 100.33 534.89 99.14 534.22
  L 91.85 530.11
  A 0.85 0.85 0.0 0 0 90.78 530.30
  Q 86.71 535.12 80.96 532.73
  C 76.12 530.71 75.39 523.98 78.30 520.33"
/>
<path stroke="#80b5e5" vector-effect="non-scaling-stroke" d="
  M 248.35 529.77
  Q 258.37 529.72 268.91 529.77
  Q 270.31 529.78 271.66 529.54
  Q 272.17 529.46 272.21 528.95
  C 274.84 501.07 236.87 500.63 236.51 525.25
  C 236.40 533.05 240.64 539.98 248.19 542.49
  C 256.08 545.11 264.87 543.77 270.31 537.18
  A 0.54 0.54 0.0 0 0 270.16 536.37
  L 263.48 532.42
  A 1.55 1.54 43.5 0 0 261.83 532.46
  C 257.80 535.13 250.52 535.51 247.87 530.56
  Q 247.45 529.77 248.35 529.77"
/>
<path stroke="#80b5e5" vector-effect="non-scaling-stroke" d="
  M 311.31 525.53
  A 18.26 18.26 0.0 0 0 293.05 507.27
  A 18.26 18.26 0.0 0 0 274.79 525.53
  A 18.26 18.26 0.0 0 0 293.05 543.79
  A 18.26 18.26 0.0 0 0 311.31 525.53"
/>
<path stroke="#80b5e5" vector-effect="non-scaling-stroke" d="
  M 128.94 522.01
  L 142.84 521.97
  A 0.12 0.12 0.0 0 0 142.96 521.85
  L 142.96 521.78
  A 6.98 5.19 -0.2 0 0 135.96 516.61
  L 135.78 516.61
  A 6.98 5.19 -0.2 0 0 128.82 521.82
  L 128.82 521.89
  A 0.12 0.12 0.0 0 0 128.94 522.01"
/>
<path stroke="#80b5e5" vector-effect="non-scaling-stroke" d="
  M 182.6450 524.5878
  A 7.36 7.36 0.0 0 0 175.2466 517.2664
  L 173.8266 517.2738
  A 7.36 7.36 0.0 0 0 166.5052 524.6723
  L 166.5150 526.5322
  A 7.36 7.36 0.0 0 0 173.9134 533.8536
  L 175.3334 533.8462
  A 7.36 7.36 0.0 0 0 182.6548 526.4477
  L 182.6450 524.5878"
/>
<path stroke="#80b5e5" vector-effect="non-scaling-stroke" d="
  M 247.66 521.98
  L 261.70 522.00
  A 0.11 0.11 0.0 0 0 261.81 521.89
  L 261.81 521.82
  A 7.01 5.22 0.1 0 0 254.80 516.59
  L 254.56 516.59
  A 7.01 5.22 0.1 0 0 247.55 521.80
  L 247.55 521.87
  A 0.11 0.11 0.0 0 0 247.66 521.98"
/>
<path stroke="#80b5e5" vector-effect="non-scaling-stroke" d="
  M 282.61 524.20
  C 281.55 522.34 285.03 519.45 286.24 518.45
  A 0.96 0.95 62.2 0 0 286.55 517.44
  Q 286.17 516.12 284.78 516.81
  Q 284.05 517.17 283.56 517.82
  Q 278.45 524.54 281.91 531.67
  C 287.57 543.33 305.67 538.73 305.21 525.52
  Q 305.16 523.93 304.71 525.45
  Q 303.93 528.15 302.07 529.41
  C 299.05 531.47 296.11 527.64 292.93 528.58
  C 289.97 529.46 286.65 532.99 284.59 528.30
  C 283.79 526.46 285.51 524.37 286.56 522.94
  A 0.90 0.90 0.0 0 0 285.93 521.51
  Q 284.21 521.33 283.39 524.11
  A 0.43 0.43 0.0 0 1 282.61 524.20"
/>
<path stroke="#80b5e5" vector-effect="non-scaling-stroke" d="
  M 299.69 526.77
  Q 298.85 527.09 298.87 526.20
  Q 298.93 522.14 302.12 521.25
  A 1.05 1.05 0.0 0 0 302.67 519.60
  Q 301.09 517.57 298.80 516.69
  A 1.24 1.22 33.6 0 0 297.51 516.94
  C 296.24 518.12 294.78 518.88 293.41 517.15
  A 1.70 1.69 60.1 0 0 291.46 516.62
  Q 289.46 517.41 287.74 518.90
  A 0.72 0.72 0.0 0 0 287.55 519.74
  Q 288.28 521.39 290.05 521.65
  A 0.67 0.66 89.4 0 1 290.61 522.20
  Q 290.98 524.53 290.49 526.62
  A 0.51 0.51 0.0 0 0 291.21 527.20
  Q 293.83 525.93 296.09 527.01
  Q 296.68 527.29 297.32 527.41
  L 301.02 528.12
  A 0.99 0.96 -66.4 0 0 302.00 527.72
  L 302.19 527.46
  A 0.48 0.47 -61.7 0 0 301.98 526.74
  Q 300.85 526.31 299.69 526.77"
/>
<path stroke="#80b5e5" vector-effect="non-scaling-stroke" d="
  M 288.7079 527.4515
  A 1.50 1.11 -3.0 0 0 287.1519 526.4215
  A 1.50 1.11 -3.0 0 0 285.7121 527.6085
  A 1.50 1.11 -3.0 0 0 287.2681 528.6385
  A 1.50 1.11 -3.0 0 0 288.7079 527.4515"
/>
<path stroke="#80b5e5" vector-effect="non-scaling-stroke" d="
  M 295.2911 532.3514
  A 1.43 1.20 13.4 0 0 294.1781 530.8527
  A 1.43 1.20 13.4 0 0 292.5089 531.6886
  A 1.43 1.20 13.4 0 0 293.6219 533.1873
  A 1.43 1.20 13.4 0 0 295.2911 532.3514"
/>
<path stroke="#80b5e5" vector-effect="non-scaling-stroke" d="
  M 298.9688 532.6875
  A 0.84 0.40 12.9 0 0 298.2393 532.1101
  A 0.84 0.40 12.9 0 0 297.3312 532.3125
  A 0.84 0.40 12.9 0 0 298.0607 532.8899
  A 0.84 0.40 12.9 0 0 298.9688 532.6875"
/>
<path stroke="#80b5e5" vector-effect="non-scaling-stroke" d="
  M 297.7281 524.7177
  A 1.02 0.79 -3.5 0 0 296.6618 523.9915
  A 1.02 0.79 -3.5 0 0 295.6919 524.8423
  A 1.02 0.79 -3.5 0 0 296.7582 525.5685
  A 1.02 0.79 -3.5 0 0 297.7281 524.7177"
/>
</g>
<path fill="#29b3fe" d="
  M 0.00 0.00
  L 378.00 0.00
  L 378.00 319.50
  L 377.67 320.32
  Q 377.46 320.84 377.01 320.49
  C 358.82 306.37 335.72 308.18 315.66 316.67
  Q 297.44 324.38 280.65 334.88
  Q 260.92 347.22 241.62 359.09
  Q 227.90 367.54 214.96 373.60
  C 197.54 381.78 179.22 387.45 160.29 386.15
  C 140.58 384.80 121.34 374.29 108.03 360.09
  C 89.71 340.55 88.78 310.58 96.08 286.18
  C 101.23 268.97 109.94 253.75 121.68 240.33
  C 129.39 231.51 137.40 222.59 143.40 212.61
  C 150.83 200.27 153.59 183.62 146.65 170.74
  C 140.65 159.60 128.16 154.79 115.85 157.26
  C 101.96 160.06 91.03 170.61 84.31 182.94
  Q 73.15 203.39 69.98 228.27
  C 69.23 234.14 66.95 238.50 61.14 240.98
  Q 54.79 243.68 49.05 240.29
  C 42.38 236.34 40.63 225.89 41.36 218.39
  Q 41.94 212.42 43.58 206.78
  C 56.43 162.64 91.47 133.06 125.12 103.71
  C 135.16 94.95 144.80 83.57 148.27 70.58
  C 152.14 56.09 148.35 41.44 134.60 34.41
  C 122.73 28.36 108.10 34.13 98.04 41.00
  C 84.03 50.57 71.26 65.08 60.85 79.13
  C 48.22 96.17 36.22 115.58 25.98 135.13
  C 12.89 160.13 5.38 187.22 1.12 215.67
  C 0.96 216.75 1.22 218.01 0.91 219.08
  Q 0.57 220.25 0.44 219.04
  L 0.00 215.00
  L 0.00 210.91
  L 0.00 202.88
  L 0.00 0.00
  Z
  M 238.41 104.44
  A 9.83 9.83 0.0 0 0 228.58 94.61
  A 9.83 9.83 0.0 0 0 218.75 104.44
  A 9.83 9.83 0.0 0 0 228.58 114.27
  A 9.83 9.83 0.0 0 0 238.41 104.44
  Z
  M 323.78 236.13
  A 15.40 15.40 0.0 0 0 308.38 220.73
  A 15.40 15.40 0.0 0 0 292.98 236.13
  A 15.40 15.40 0.0 0 0 308.38 251.53
  A 15.40 15.40 0.0 0 0 323.78 236.13
  Z
  M 180.62 323.23
  A 26.47 26.47 0.0 0 0 154.15 296.76
  A 26.47 26.47 0.0 0 0 127.68 323.23
  A 26.47 26.47 0.0 0 0 154.15 349.70
  A 26.47 26.47 0.0 0 0 180.62 323.23
  Z"
/>
<path fill="#006aca" d="
  M 378.00 319.50
  L 378.00 660.00
  L 0.00 660.00
  L 0.00 215.00
  L 0.44 219.04
  Q 0.57 220.25 0.91 219.08
  C 1.22 218.01 0.96 216.75 1.12 215.67
  C 5.38 187.22 12.89 160.13 25.98 135.13
  C 36.22 115.58 48.22 96.17 60.85 79.13
  C 71.26 65.08 84.03 50.57 98.04 41.00
  C 108.10 34.13 122.73 28.36 134.60 34.41
  C 148.35 41.44 152.14 56.09 148.27 70.58
  C 144.80 83.57 135.16 94.95 125.12 103.71
  C 91.47 133.06 56.43 162.64 43.58 206.78
  Q 41.94 212.42 41.36 218.39
  C 40.63 225.89 42.38 236.34 49.05 240.29
  Q 54.79 243.68 61.14 240.98
  C 66.95 238.50 69.23 234.14 69.98 228.27
  Q 73.15 203.39 84.31 182.94
  C 91.03 170.61 101.96 160.06 115.85 157.26
  C 128.16 154.79 140.65 159.60 146.65 170.74
  C 153.59 183.62 150.83 200.27 143.40 212.61
  C 137.40 222.59 129.39 231.51 121.68 240.33
  C 109.94 253.75 101.23 268.97 96.08 286.18
  C 88.78 310.58 89.71 340.55 108.03 360.09
  C 121.34 374.29 140.58 384.80 160.29 386.15
  C 179.22 387.45 197.54 381.78 214.96 373.60
  Q 227.90 367.54 241.62 359.09
  Q 260.92 347.22 280.65 334.88
  Q 297.44 324.38 315.66 316.67
  C 335.72 308.18 358.82 306.37 377.01 320.49
  Q 377.46 320.84 377.67 320.32
  L 378.00 319.50
  Z
  M 67.66 370.31
  A 14.66 14.66 0.0 0 0 53.00 355.65
  A 14.66 14.66 0.0 0 0 38.34 370.31
  A 14.66 14.66 0.0 0 0 53.00 384.97
  A 14.66 14.66 0.0 0 0 67.66 370.31
  Z
  M 323.79 426.12
  A 22.07 22.07 0.0 0 0 301.72 404.05
  A 22.07 22.07 0.0 0 0 279.65 426.12
  A 22.07 22.07 0.0 0 0 301.72 448.19
  A 22.07 22.07 0.0 0 0 323.79 426.12
  Z
  M 113.24 492.66
  A 0.26 0.26 0.0 0 0 112.98 492.40
  L 103.06 492.40
  A 0.26 0.26 0.0 0 0 102.80 492.66
  L 102.80 542.50
  A 0.26 0.26 0.0 0 0 103.06 542.76
  L 112.98 542.76
  A 0.26 0.26 0.0 0 0 113.24 542.50
  L 113.24 492.66
  Z
  M 129.55 529.76
  L 152.27 529.74
  A 1.21 1.20 1.3 0 0 153.47 528.60
  Q 153.61 526.24 153.46 523.71
  C 152.65 509.49 137.15 503.43 126.04 510.06
  C 113.06 517.80 115.68 538.82 130.51 542.81
  Q 143.15 546.20 151.45 537.47
  A 0.76 0.76 0.0 0 0 151.28 536.29
  L 144.60 532.38
  A 1.47 1.47 0.0 0 0 143.03 532.43
  C 138.86 535.20 131.92 535.43 129.07 530.61
  Q 128.57 529.76 129.55 529.76
  Z
  M 181.88 510.65
  C 176.62 506.09 168.13 506.34 162.66 510.89
  C 152.27 519.55 154.23 537.19 166.75 542.54
  C 171.57 544.61 177.46 544.12 181.60 540.41
  A 0.59 0.59 0.0 0 1 182.57 540.75
  L 182.82 542.22
  Q 182.92 542.77 183.47 542.77
  L 192.64 542.74
  A 0.63 0.63 0.0 0 0 193.27 542.11
  L 193.27 508.72
  A 0.49 0.49 0.0 0 0 192.78 508.23
  L 183.50 508.24
  Q 182.97 508.24 182.78 508.73
  Q 182.48 509.49 182.52 510.34
  Q 182.55 511.23 181.88 510.65
  Z
  M 209.83 510.00
  L 209.74 508.94
  A 0.80 0.80 0.0 0 0 208.94 508.21
  L 199.80 508.26
  Q 199.24 508.26 199.24 508.82
  L 199.23 542.24
  A 0.52 0.52 0.0 0 0 199.75 542.76
  L 209.02 542.75
  Q 209.75 542.74 209.75 542.01
  Q 209.81 534.47 209.72 524.67
  C 209.68 520.76 210.70 517.41 215.27 516.93
  C 219.06 516.52 222.03 518.74 222.03 522.57
  Q 222.02 533.54 222.00 542.20
  A 0.55 0.55 0.0 0 0 222.55 542.75
  L 231.97 542.74
  A 0.71 0.71 0.0 0 0 232.68 541.99
  Q 232.32 533.97 232.58 526.13
  Q 232.84 518.03 230.88 514.19
  C 227.10 506.78 216.96 505.11 210.60 510.33
  Q 209.90 510.91 209.83 510.00
  Z
  M 78.30 520.33
  C 81.38 516.46 87.56 516.60 90.50 520.59
  A 1.11 1.11 0.0 0 0 91.95 520.89
  L 99.47 516.53
  A 0.81 0.81 0.0 0 0 99.72 515.35
  C 92.21 504.83 76.55 504.53 69.27 515.26
  C 61.74 526.36 68.37 541.24 81.17 543.39
  Q 92.39 545.28 99.50 535.97
  Q 100.33 534.89 99.14 534.22
  L 91.85 530.11
  A 0.85 0.85 0.0 0 0 90.78 530.30
  Q 86.71 535.12 80.96 532.73
  C 76.12 530.71 75.39 523.98 78.30 520.33
  Z
  M 248.35 529.77
  Q 258.37 529.72 268.91 529.77
  Q 270.31 529.78 271.66 529.54
  Q 272.17 529.46 272.21 528.95
  C 274.84 501.07 236.87 500.63 236.51 525.25
  C 236.40 533.05 240.64 539.98 248.19 542.49
  C 256.08 545.11 264.87 543.77 270.31 537.18
  A 0.54 0.54 0.0 0 0 270.16 536.37
  L 263.48 532.42
  A 1.55 1.54 43.5 0 0 261.83 532.46
  C 257.80 535.13 250.52 535.51 247.87 530.56
  Q 247.45 529.77 248.35 529.77
  Z
  M 311.31 525.53
  A 18.26 18.26 0.0 0 0 293.05 507.27
  A 18.26 18.26 0.0 0 0 274.79 525.53
  A 18.26 18.26 0.0 0 0 293.05 543.79
  A 18.26 18.26 0.0 0 0 311.31 525.53
  Z"
/>
<circle fill="#006aca" cx="228.58" cy="104.44" r="9.83"/>
<path fill="#006aca" d="
  M 0.00 202.88
  L 0.00 210.91
  L 0.00 202.88
  Z"
/>
<circle fill="#006aca" cx="308.38" cy="236.13" r="15.40"/>
<circle fill="#006aca" cx="154.15" cy="323.23" r="26.47"/>
<circle fill="#29b3fe" cx="53.00" cy="370.31" r="14.66"/>
<circle fill="#29b3fe" cx="301.72" cy="426.12" r="22.07"/>
<rect fill="#ffffff" x="102.80" y="492.40" width="10.44" height="50.36" rx="0.26"/>
<path fill="#ffffff" d="
  M 129.07 530.61
  C 131.92 535.43 138.86 535.20 143.03 532.43
  A 1.47 1.47 0.0 0 1 144.60 532.38
  L 151.28 536.29
  A 0.76 0.76 0.0 0 1 151.45 537.47
  Q 143.15 546.20 130.51 542.81
  C 115.68 538.82 113.06 517.80 126.04 510.06
  C 137.15 503.43 152.65 509.49 153.46 523.71
  Q 153.61 526.24 153.47 528.60
  A 1.21 1.20 1.3 0 1 152.27 529.74
  L 129.55 529.76
  Q 128.57 529.76 129.07 530.61
  Z
  M 128.94 522.01
  L 142.84 521.97
  A 0.12 0.12 0.0 0 0 142.96 521.85
  L 142.96 521.78
  A 6.98 5.19 -0.2 0 0 135.96 516.61
  L 135.78 516.61
  A 6.98 5.19 -0.2 0 0 128.82 521.82
  L 128.82 521.89
  A 0.12 0.12 0.0 0 0 128.94 522.01
  Z"
/>
<path fill="#ffffff" d="
  M 182.52 510.34
  Q 182.48 509.49 182.78 508.73
  Q 182.97 508.24 183.50 508.24
  L 192.78 508.23
  A 0.49 0.49 0.0 0 1 193.27 508.72
  L 193.27 542.11
  A 0.63 0.63 0.0 0 1 192.64 542.74
  L 183.47 542.77
  Q 182.92 542.77 182.82 542.22
  L 182.57 540.75
  A 0.59 0.59 0.0 0 0 181.60 540.41
  C 177.46 544.12 171.57 544.61 166.75 542.54
  C 154.23 537.19 152.27 519.55 162.66 510.89
  C 168.13 506.34 176.62 506.09 181.88 510.65
  Q 182.55 511.23 182.52 510.34
  Z
  M 182.6450 524.5878
  A 7.36 7.36 0.0 0 0 175.2466 517.2664
  L 173.8266 517.2738
  A 7.36 7.36 0.0 0 0 166.5052 524.6723
  L 166.5150 526.5322
  A 7.36 7.36 0.0 0 0 173.9134 533.8536
  L 175.3334 533.8462
  A 7.36 7.36 0.0 0 0 182.6548 526.4477
  L 182.6450 524.5878
  Z"
/>
<path fill="#ffffff" d="
  M 210.60 510.33
  C 216.96 505.11 227.10 506.78 230.88 514.19
  Q 232.84 518.03 232.58 526.13
  Q 232.32 533.97 232.68 541.99
  A 0.71 0.71 0.0 0 1 231.97 542.74
  L 222.55 542.75
  A 0.55 0.55 0.0 0 1 222.00 542.20
  Q 222.02 533.54 222.03 522.57
  C 222.03 518.74 219.06 516.52 215.27 516.93
  C 210.70 517.41 209.68 520.76 209.72 524.67
  Q 209.81 534.47 209.75 542.01
  Q 209.75 542.74 209.02 542.75
  L 199.75 542.76
  A 0.52 0.52 0.0 0 1 199.23 542.24
  L 199.24 508.82
  Q 199.24 508.26 199.80 508.26
  L 208.94 508.21
  A 0.80 0.80 0.0 0 1 209.74 508.94
  L 209.83 510.00
  Q 209.90 510.91 210.60 510.33
  Z"
/>
<path fill="#ffffff" d="
  M 90.50 520.59
  C 87.56 516.60 81.38 516.46 78.30 520.33
  C 75.39 523.98 76.12 530.71 80.96 532.73
  Q 86.71 535.12 90.78 530.30
  A 0.85 0.85 0.0 0 1 91.85 530.11
  L 99.14 534.22
  Q 100.33 534.89 99.50 535.97
  Q 92.39 545.28 81.17 543.39
  C 68.37 541.24 61.74 526.36 69.27 515.26
  C 76.55 504.53 92.21 504.83 99.72 515.35
  A 0.81 0.81 0.0 0 1 99.47 516.53
  L 91.95 520.89
  A 1.11 1.11 0.0 0 1 90.50 520.59
  Z"
/>
<path fill="#ffffff" d="
  M 247.87 530.56
  C 250.52 535.51 257.80 535.13 261.83 532.46
  A 1.55 1.54 43.5 0 1 263.48 532.42
  L 270.16 536.37
  A 0.54 0.54 0.0 0 1 270.31 537.18
  C 264.87 543.77 256.08 545.11 248.19 542.49
  C 240.64 539.98 236.40 533.05 236.51 525.25
  C 236.87 500.63 274.84 501.07 272.21 528.95
  Q 272.17 529.46 271.66 529.54
  Q 270.31 529.78 268.91 529.77
  Q 258.37 529.72 248.35 529.77
  Q 247.45 529.77 247.87 530.56
  Z
  M 247.66 521.98
  L 261.70 522.00
  A 0.11 0.11 0.0 0 0 261.81 521.89
  L 261.81 521.82
  A 7.01 5.22 0.1 0 0 254.80 516.59
  L 254.56 516.59
  A 7.01 5.22 0.1 0 0 247.55 521.80
  L 247.55 521.87
  A 0.11 0.11 0.0 0 0 247.66 521.98
  Z"
/>
<path fill="#ffffff" d="
  M 311.31 525.53
  A 18.26 18.26 0.0 0 1 293.05 543.79
  A 18.26 18.26 0.0 0 1 274.79 525.53
  A 18.26 18.26 0.0 0 1 293.05 507.27
  A 18.26 18.26 0.0 0 1 311.31 525.53
  Z
  M 282.61 524.20
  C 281.55 522.34 285.03 519.45 286.24 518.45
  A 0.96 0.95 62.2 0 0 286.55 517.44
  Q 286.17 516.12 284.78 516.81
  Q 284.05 517.17 283.56 517.82
  Q 278.45 524.54 281.91 531.67
  C 287.57 543.33 305.67 538.73 305.21 525.52
  Q 305.16 523.93 304.71 525.45
  Q 303.93 528.15 302.07 529.41
  C 299.05 531.47 296.11 527.64 292.93 528.58
  C 289.97 529.46 286.65 532.99 284.59 528.30
  C 283.79 526.46 285.51 524.37 286.56 522.94
  A 0.90 0.90 0.0 0 0 285.93 521.51
  Q 284.21 521.33 283.39 524.11
  A 0.43 0.43 0.0 0 1 282.61 524.20
  Z
  M 299.69 526.77
  Q 298.85 527.09 298.87 526.20
  Q 298.93 522.14 302.12 521.25
  A 1.05 1.05 0.0 0 0 302.67 519.60
  Q 301.09 517.57 298.80 516.69
  A 1.24 1.22 33.6 0 0 297.51 516.94
  C 296.24 518.12 294.78 518.88 293.41 517.15
  A 1.70 1.69 60.1 0 0 291.46 516.62
  Q 289.46 517.41 287.74 518.90
  A 0.72 0.72 0.0 0 0 287.55 519.74
  Q 288.28 521.39 290.05 521.65
  A 0.67 0.66 89.4 0 1 290.61 522.20
  Q 290.98 524.53 290.49 526.62
  A 0.51 0.51 0.0 0 0 291.21 527.20
  Q 293.83 525.93 296.09 527.01
  Q 296.68 527.29 297.32 527.41
  L 301.02 528.12
  A 0.99 0.96 -66.4 0 0 302.00 527.72
  L 302.19 527.46
  A 0.48 0.47 -61.7 0 0 301.98 526.74
  Q 300.85 526.31 299.69 526.77
  Z
  M 288.7079 527.4515
  A 1.50 1.11 -3.0 0 0 287.1519 526.4215
  A 1.50 1.11 -3.0 0 0 285.7121 527.6085
  A 1.50 1.11 -3.0 0 0 287.2681 528.6385
  A 1.50 1.11 -3.0 0 0 288.7079 527.4515
  Z"
/>
<path fill="#006aca" d="
  M 128.94 522.01
  A 0.12 0.12 0.0 0 1 128.82 521.89
  L 128.82 521.82
  A 6.98 5.19 -0.2 0 1 135.78 516.61
  L 135.96 516.61
  A 6.98 5.19 -0.2 0 1 142.96 521.78
  L 142.96 521.85
  A 0.12 0.12 0.0 0 1 142.84 521.97
  L 128.94 522.01
  Z"
/>
<path fill="#006aca" d="
  M 247.66 521.98
  A 0.11 0.11 0.0 0 1 247.55 521.87
  L 247.55 521.80
  A 7.01 5.22 0.1 0 1 254.56 516.59
  L 254.80 516.59
  A 7.01 5.22 0.1 0 1 261.81 521.82
  L 261.81 521.89
  A 0.11 0.11 0.0 0 1 261.70 522.00
  L 247.66 521.98
  Z"
/>
<path fill="#006aca" d="
  M 282.61 524.20
  A 0.43 0.43 0.0 0 0 283.39 524.11
  Q 284.21 521.33 285.93 521.51
  A 0.90 0.90 0.0 0 1 286.56 522.94
  C 285.51 524.37 283.79 526.46 284.59 528.30
  C 286.65 532.99 289.97 529.46 292.93 528.58
  C 296.11 527.64 299.05 531.47 302.07 529.41
  Q 303.93 528.15 304.71 525.45
  Q 305.16 523.93 305.21 525.52
  C 305.67 538.73 287.57 543.33 281.91 531.67
  Q 278.45 524.54 283.56 517.82
  Q 284.05 517.17 284.78 516.81
  Q 286.17 516.12 286.55 517.44
  A 0.96 0.95 62.2 0 1 286.24 518.45
  C 285.03 519.45 281.55 522.34 282.61 524.20
  Z
  M 295.2911 532.3514
  A 1.43 1.20 13.4 0 0 294.1781 530.8527
  A 1.43 1.20 13.4 0 0 292.5089 531.6886
  A 1.43 1.20 13.4 0 0 293.6219 533.1873
  A 1.43 1.20 13.4 0 0 295.2911 532.3514
  Z
  M 298.9688 532.6875
  A 0.84 0.40 12.9 0 0 298.2393 532.1101
  A 0.84 0.40 12.9 0 0 297.3312 532.3125
  A 0.84 0.40 12.9 0 0 298.0607 532.8899
  A 0.84 0.40 12.9 0 0 298.9688 532.6875
  Z"
/>
<path fill="#006aca" d="
  M 299.69 526.77
  Q 300.85 526.31 301.98 526.74
  A 0.48 0.47 -61.7 0 1 302.19 527.46
  L 302.00 527.72
  A 0.99 0.96 -66.4 0 1 301.02 528.12
  L 297.32 527.41
  Q 296.68 527.29 296.09 527.01
  Q 293.83 525.93 291.21 527.20
  A 0.51 0.51 0.0 0 1 290.49 526.62
  Q 290.98 524.53 290.61 522.20
  A 0.67 0.66 89.4 0 0 290.05 521.65
  Q 288.28 521.39 287.55 519.74
  A 0.72 0.72 0.0 0 1 287.74 518.90
  Q 289.46 517.41 291.46 516.62
  A 1.70 1.69 60.1 0 1 293.41 517.15
  C 294.78 518.88 296.24 518.12 297.51 516.94
  A 1.24 1.22 33.6 0 1 298.80 516.69
  Q 301.09 517.57 302.67 519.60
  A 1.05 1.05 0.0 0 1 302.12 521.25
  Q 298.93 522.14 298.87 526.20
  Q 298.85 527.09 299.69 526.77
  Z
  M 297.7281 524.7177
  A 1.02 0.79 -3.5 0 0 296.6618 523.9915
  A 1.02 0.79 -3.5 0 0 295.6919 524.8423
  A 1.02 0.79 -3.5 0 0 296.7582 525.5685
  A 1.02 0.79 -3.5 0 0 297.7281 524.7177
  Z"
/>
<rect fill="#006aca" x="-8.07" y="-8.29" transform="translate(174.58,525.56) rotate(-0.3)" width="16.14" height="16.58" rx="7.36"/>
<ellipse fill="#ffffff" cx="0.00" cy="0.00" transform="translate(296.71,524.78) rotate(-3.5)" rx="1.02" ry="0.79"/>
<ellipse fill="#006aca" cx="0.00" cy="0.00" transform="translate(287.21,527.53) rotate(-3.0)" rx="1.50" ry="1.11"/>
<ellipse fill="#ffffff" cx="0.00" cy="0.00" transform="translate(293.90,532.02) rotate(13.4)" rx="1.43" ry="1.20"/>
<ellipse fill="#ffffff" cx="0.00" cy="0.00" transform="translate(298.15,532.50) rotate(12.9)" rx="0.84" ry="0.40"/>
</svg>
